<?xml version="1.0" standalone="no"?>
<!DOCTYPE svg PUBLIC "-//W3C//DTD SVG 20010904//EN"
 "http://www.w3.org/TR/2001/REC-SVG-20010904/DTD/svg10.dtd">
<svg version="1.0" xmlns="http://www.w3.org/2000/svg"
 width="2507.000000pt" height="2242.000000pt" viewBox="0 0 2507.000000 2242.000000"
 preserveAspectRatio="xMidYMid meet">

<g transform="translate(0.000000,2242.000000) scale(0.100000,-0.100000)"
fill="#000000" stroke="none">
<path d="M9085 22405 c-350 -57 -628 -207 -915 -495 -737 -740 -1359 -2336
-1699 -4365 -221 -1315 -320 -2697 -303 -4211 4 -337 2 -395 -11 -420 -8 -16
-64 -83 -124 -149 -426 -474 -925 -1066 -1336 -1589 -169 -215 -641 -840 -785
-1039 -34 -48 -69 -87 -77 -87 -8 0 -97 29 -197 65 -1589 571 -2605 1316
-2981 2186 -248 573 -235 1218 35 1854 280 659 698 1201 1237 1603 406 303
968 569 1446 682 119 29 285 60 316 60 11 0 25 -24 44 -77 56 -159 133 -280
251 -394 307 -296 753 -367 1139 -179 260 126 433 333 522 625 25 84 27 102
27 275 0 173 -2 191 -27 275 -107 349 -363 598 -712 692 -89 24 -118 27 -260
27 -187 0 -257 -15 -410 -88 -284 -134 -465 -350 -551 -656 -15 -52 -28 -96
-29 -98 -1 -1 -90 -20 -196 -42 -682 -139 -1284 -405 -1801 -796 -465 -352
-878 -826 -1159 -1329 -257 -461 -422 -972 -501 -1559 -30 -219 -32 -681 -5
-886 186 -1375 1152 -2576 2756 -3426 111 -58 201 -108 201 -110 0 -2 -98
-171 -219 -376 -120 -205 -263 -452 -318 -548 -692 -1211 -1187 -2445 -1398
-3490 -146 -720 -162 -1422 -45 -1886 97 -384 316 -729 619 -972 395 -318 933
-499 1641 -552 916 -68 2131 190 3220 685 79 36 148 65 152 65 5 0 41 -24 81
-54 139 -104 288 -170 453 -202 128 -24 317 -15 439 20 364 106 611 356 707
714 31 117 36 328 10 452 -39 192 -121 347 -257 489 -90 94 -167 152 -270 204
-282 140 -614 142 -900 3 -443 -216 -661 -741 -504 -1216 l21 -64 -20 -17
c-28 -22 -314 -146 -530 -229 -808 -310 -1582 -462 -2347 -462 -809 1 -1399
199 -1786 598 -226 234 -325 447 -380 817 -75 516 2 1018 263 1712 389 1032
1226 2371 2231 3568 222 265 244 287 279 287 16 0 107 -22 201 -49 808 -232
1405 -340 2222 -402 88 -7 169 -15 180 -20 18 -6 28 -39 69 -215 311 -1335
786 -2606 1358 -3629 1162 -2077 2838 -3431 4784 -3864 569 -127 957 -150
1319 -76 731 148 1290 727 1675 1735 217 566 359 1163 446 1868 l27 222 41 11
c232 59 385 147 536 306 389 410 351 1078 -80 1441 -344 289 -824 321 -1197
79 -151 -97 -273 -236 -353 -402 -169 -347 -132 -730 102 -1048 119 -161 286
-275 531 -360 24 -9 22 -46 -18 -327 -86 -596 -167 -967 -302 -1375 -176 -534
-381 -938 -625 -1228 -120 -143 -212 -201 -374 -237 -604 -132 -1519 76 -2347
533 -732 404 -1378 952 -1985 1684 -231 279 -556 742 -755 1074 -525 879 -952
1886 -1271 3000 -75 262 -206 767 -206 796 0 7 75 13 218 17 435 14 1659 90
2197 137 1404 121 3253 385 4630 660 2383 476 4145 958 5889 1610 1917 717
3268 1539 3772 2294 289 435 338 864 144 1270 -149 311 -479 620 -955 895
-212 122 -727 355 -812 367 -152 21 -265 -159 -183 -292 29 -47 61 -66 245
-144 208 -89 534 -254 673 -341 153 -96 335 -236 434 -333 357 -351 418 -705
191 -1102 -426 -746 -1816 -1579 -3928 -2355 -1246 -457 -3022 -958 -4540
-1280 -132 -28 -341 -73 -465 -100 -124 -27 -322 -66 -440 -85 -118 -20 -249
-45 -291 -56 -133 -33 -650 -86 -1094 -111 -298 -17 -1710 -17 -2145 0 -1322
52 -1971 98 -3135 222 -276 30 -667 79 -672 84 -7 7 -105 727 -132 971 -37
326 -75 744 -95 1035 -31 434 -58 961 -52 985 16 65 1293 1351 2061 2076 2053
1939 3846 3256 5300 3894 533 234 952 363 1405 432 202 30 601 43 771 24 363
-41 677 -153 955 -339 243 -163 424 -352 632 -660 66 -97 135 -191 154 -209
125 -120 333 -11 315 165 -6 57 -34 110 -144 274 -361 537 -874 962 -1442
1193 -830 337 -1788 335 -2976 -7 -917 -264 -1952 -758 -3060 -1461 -1155
-733 -2500 -1799 -3646 -2890 -99 -95 -205 -194 -235 -221 l-54 -48 0 63 c0
139 50 843 91 1289 208 2273 609 4205 1105 5327 107 241 232 464 341 605 68
88 181 208 236 251 117 89 291 101 492 33 427 -144 776 -440 1037 -878 227
-383 339 -774 368 -1288 12 -209 26 -266 73 -306 42 -35 72 -45 133 -45 73 0
126 29 161 88 27 47 28 51 27 198 -3 469 -135 994 -357 1419 -137 261 -270
449 -446 630 -334 341 -716 544 -1171 622 -135 22 -478 28 -595 9z m-305 -530
c0 -3 -22 -38 -49 -78 -336 -498 -673 -1450 -935 -2637 -211 -958 -330 -1736
-470 -3065 -58 -549 -90 -974 -131 -1755 -9 -168 -21 -322 -26 -344 -9 -31
-63 -93 -301 -337 -159 -165 -295 -299 -301 -299 -12 0 -3 1061 13 1410 64
1425 208 2554 475 3710 170 733 371 1358 612 1905 257 581 511 977 819 1275
131 127 294 246 294 215z m6869 -3050 c-3 -2 -106 -38 -230 -78 -370 -122
-676 -250 -1069 -446 -986 -493 -2084 -1245 -3310 -2266 -927 -772 -1715
-1502 -2895 -2684 -324 -325 -593 -591 -598 -591 -8 0 -1 902 9 973 2 22 13
55 23 75 18 34 406 413 766 748 1412 1312 2860 2396 4215 3154 238 133 733
383 970 490 619 278 1251 485 1760 575 85 15 184 33 220 40 66 13 147 19 139
10z m-8511 -6494 c-13 -30 -492 -547 -515 -556 -9 -3 -13 7 -13 34 0 20 -4
118 -10 217 -23 417 -30 725 -17 749 10 21 339 373 503 540 l59 60 3 -507 c2
-391 -1 -514 -10 -537z m-917 -516 c19 -380 20 -445 8 -467 -8 -15 -100 -123
-204 -240 -105 -117 -412 -462 -684 -768 -271 -305 -505 -561 -519 -569 -20
-10 -35 -11 -66 -3 -92 22 -486 139 -493 145 -12 12 21 68 135 227 377 527
1392 1782 1697 2099 l90 93 7 -38 c3 -22 16 -237 29 -479z m963 -240 c29 -596
124 -1545 219 -2182 l23 -153 -41 0 c-44 0 -418 55 -476 71 -45 11 -54 32 -68
159 -6 52 -42 361 -81 685 -75 624 -100 874 -100 993 l0 73 47 52 c142 155
306 332 377 405 96 97 90 104 100 -103z m-6482 -87 c108 -135 335 -366 475
-485 544 -463 1239 -844 2198 -1206 110 -42 208 -78 217 -82 14 -6 -18 -59
-184 -308 -110 -166 -203 -304 -205 -307 -5 -5 -198 90 -358 177 -958 522
-1683 1209 -2093 1983 -90 170 -157 330 -139 330 4 0 43 -46 89 -102z m3571
-1989 c136 -40 247 -76 247 -81 0 -6 -409 -492 -540 -641 -4 -4 -90 25 -191
64 -101 39 -194 75 -207 80 -22 9 -14 23 195 334 149 222 223 324 233 321 8
-2 126 -36 263 -77z m1483 -359 c411 -88 752 -164 757 -169 10 -10 137 -675
137 -715 0 -18 -6 -18 -112 -12 -523 32 -1167 133 -1698 266 -200 50 -441 117
-448 125 -8 8 26 51 248 311 320 374 301 354 338 354 17 0 367 -72 778 -160z
m1464 -275 c135 -20 252 -39 260 -44 10 -5 32 -98 70 -302 l56 -294 -270 -3
c-148 -1 -270 -1 -272 1 -10 10 -93 442 -128 664 -3 19 1 22 18 18 12 -3 131
-21 266 -40z m1063 -145 c1056 -116 1806 -177 2729 -222 257 -12 462 -26 455
-29 -20 -12 -393 -56 -697 -84 -953 -86 -2160 -158 -2555 -153 l-209 3 -46
230 c-26 127 -49 245 -53 263 -4 19 -2 32 4 32 5 0 173 -18 372 -40z m-4761
-197 c93 -37 168 -71 168 -77 0 -6 -82 -108 -181 -226 -423 -503 -766 -966
-1185 -1599 -103 -157 -189 -280 -191 -275 -4 12 142 324 277 594 236 472 511
962 833 1488 55 89 102 162 106 162 3 0 81 -30 173 -67z m4227 -920 c290
-1174 632 -2131 1087 -3043 814 -1630 1936 -2883 3224 -3602 273 -152 417
-219 800 -367 124 -48 234 -91 245 -95 12 -5 15 -10 8 -13 -21 -8 -407 93
-606 157 -834 270 -1589 712 -2292 1342 -169 152 -502 488 -646 653 -876 1005
-1589 2342 -2067 3880 -101 323 -306 1075 -347 1273 l-7 32 274 0 273 0 54
-217z"/>
<path d="M10285 14389 c-208 -26 -370 -163 -421 -354 -18 -65 -17 -127 1 -198
34 -130 102 -226 262 -367 269 -238 394 -354 413 -385 51 -82 44 -153 -19
-216 -40 -40 -92 -59 -161 -59 -94 1 -159 42 -246 156 -40 52 -62 73 -73 69
-36 -14 -261 -158 -261 -167 0 -6 14 -38 32 -72 49 -93 174 -214 268 -259 82
-39 200 -67 280 -67 80 0 198 28 279 67 211 100 325 349 266 577 -38 146 -121
249 -365 457 -182 155 -298 263 -322 298 -45 66 -6 160 75 182 92 25 175 -8
272 -108 43 -44 68 -63 77 -57 7 4 66 55 131 112 114 101 118 105 100 123 -88
85 -198 176 -248 204 -103 57 -222 80 -340 64z"/>
<path d="M14310 14389 c-374 -33 -703 -299 -818 -659 -89 -278 -48 -583 110
-825 222 -341 622 -498 1027 -404 448 104 766 562 711 1024 -64 539 -509 912
-1030 864z"/>
<path d="M11435 14340 c-7 -12 -99 -522 -235 -1305 -44 -253 -83 -472 -86
-487 l-6 -28 171 0 c94 0 171 3 171 6 0 12 40 243 96 559 54 303 99 513 113
527 4 5 90 -240 191 -542 l185 -550 154 2 153 3 187 553 c102 303 190 552 196
552 5 0 52 -246 103 -546 51 -301 95 -551 98 -555 3 -5 80 -9 171 -9 l165 0
-5 28 c-3 15 -72 424 -153 910 l-148 882 -171 0 -171 0 -204 -606 c-112 -333
-209 -613 -216 -621 -13 -19 -22 3 -258 712 l-173 520 -161 3 c-108 2 -163 -1
-167 -8z"/>
<path d="M18153 14338 c-10 -17 -16 -1537 -6 -1693 l8 -120 162 -3 161 -2 7
76 c9 92 -1 1687 -11 1727 l-6 27 -154 0 c-111 0 -155 -3 -161 -12z"/>
<path d="M18913 14344 l-23 -5 0 -911 0 -911 353 6 c193 3 389 11 435 17 333
43 559 287 643 695 20 96 15 295 -9 395 -101 418 -316 637 -682 696 -93 15
-665 29 -717 18z m685 -363 c104 -30 167 -65 227 -125 192 -192 208 -616 32
-840 -45 -57 -136 -112 -215 -130 -37 -8 -145 -18 -239 -22 l-173 -7 0 578 0
578 148 -6 c107 -4 167 -11 220 -26z"/>
<path d="M21587 14328 c-14 -13 -91 -151 -172 -308 -81 -157 -153 -293 -160
-303 -14 -20 -16 -17 -235 406 l-113 217 -183 0 c-101 0 -184 -3 -184 -7 0 -5
90 -181 201 -393 110 -212 228 -441 262 -509 l62 -125 0 -230 c0 -127 2 -304
3 -393 l2 -163 175 0 174 0 3 403 3 402 253 485 c139 267 254 496 255 510 l2
25 -162 3 c-156 2 -162 2 -186 -20z"/>
<path d="M22755 14238 c-155 -367 -645 -1665 -645 -1709 0 -5 74 -9 164 -9
139 0 166 2 177 16 8 9 43 92 79 183 l65 166 376 3 375 2 70 -182 70 -183 177
-3 c138 -2 177 0 177 10 0 7 -156 419 -346 916 l-347 902 -172 0 -173 0 -47
-112z"/>
<path d="M16253 14328 c2 -7 148 -417 323 -911 l318 -897 169 2 169 3 324 900
c178 494 324 903 324 907 0 5 -79 7 -176 6 l-177 -3 -226 -627 c-124 -345
-231 -628 -236 -628 -6 0 -111 284 -234 630 l-224 630 -180 0 c-139 0 -178 -3
-174 -12z"/>
<path d="M10595 12163 c-479 -56 -810 -364 -876 -813 -25 -170 3 -386 72 -552
59 -145 184 -299 314 -388 159 -109 439 -180 656 -166 235 15 466 118 643 289
81 77 88 56 -65 198 l-109 101 -77 -66 c-152 -129 -285 -180 -473 -180 -132 0
-194 15 -305 72 -349 182 -423 702 -140 986 100 100 209 154 357 177 203 32
405 -37 592 -201 l57 -50 119 112 c95 89 117 115 110 128 -14 27 -126 126
-191 171 -194 131 -477 207 -684 182z"/>
<path d="M16792 12043 c-213 -552 -461 -1192 -529 -1368 -92 -236 -133 -351
-133 -372 0 -18 333 -19 347 0 6 6 41 90 78 185 l69 172 375 -2 375 -3 22 -55
c11 -30 43 -110 69 -177 l47 -123 179 0 c99 0 179 2 179 4 0 7 -682 1780 -691
1799 -9 15 -28 17 -183 17 l-174 0 -30 -77z"/>
<path d="M11790 11205 l0 -905 175 0 175 0 0 390 0 390 305 0 305 0 0 -389 0
-390 57 -7 c62 -7 265 0 282 10 8 5 11 260 11 907 l0 899 -180 0 -180 0 0
-340 0 -340 -300 0 -300 0 0 340 0 340 -175 0 -175 0 0 -905z"/>
<path d="M13507 11773 c-3 -186 -2 -498 2 -693 8 -320 11 -362 31 -430 31
-106 64 -162 140 -233 122 -116 268 -171 450 -171 284 0 493 144 577 398 l27
81 6 670 c3 369 4 680 2 693 -4 22 -6 22 -178 22 l-174 0 0 -627 c0 -346 -5
-657 -10 -693 -12 -86 -48 -135 -124 -175 -107 -54 -253 -36 -330 41 -63 63
-60 34 -67 774 -3 371 -6 676 -7 678 -1 1 -78 2 -170 2 l-169 0 -6 -337z"/>
<path d="M15150 11206 l0 -903 46 -7 c61 -8 605 -8 712 1 l82 6 0 163 0 164
-250 0 -250 0 0 740 0 740 -170 0 -170 0 0 -904z"/>
</g>
</svg>
